<svg width="300" height="300" viewBox="0 0 300 300" fill="none" xmlns="http://www.w3.org/2000/svg">
<path d="M96.8758 31.25C96.8758 28.7636 95.8881 26.379 94.1299 24.6209C92.3718 22.8627 89.9872 21.875 87.5008 21.875C85.0144 21.875 82.6298 22.8627 80.8717 24.6209C79.1135 26.379 78.1258 28.7636 78.1258 31.25V51C60.1258 52.4375 48.3258 55.9625 39.6508 64.65C30.9633 73.325 27.4383 85.1375 25.9883 103.125H274.013C272.563 85.125 269.038 73.325 260.351 64.65C251.676 55.9625 239.863 52.4375 221.876 50.9875V31.25C221.876 28.7636 220.888 26.379 219.13 24.6209C217.372 22.8627 214.987 21.875 212.501 21.875C210.014 21.875 207.63 22.8627 205.872 24.6209C204.113 26.379 203.126 28.7636 203.126 31.25V50.1625C194.813 50 185.488 50 175.001 50H125.001C114.513 50 105.188 50 96.8758 50.1625V31.25Z" fill="white"/>
<path fill-rule="evenodd" clip-rule="evenodd" d="M25 150C25 139.513 25 130.188 25.1625 121.875H274.837C275 130.188 275 139.513 275 150V175C275 222.137 275 245.712 260.35 260.35C245.7 274.987 222.137 275 175 275H125C77.8625 275 54.2875 275 39.65 260.35C25.0125 245.7 25 222.137 25 175V150ZM212.5 175C215.815 175 218.995 173.683 221.339 171.339C223.683 168.995 225 165.815 225 162.5C225 159.185 223.683 156.005 221.339 153.661C218.995 151.317 215.815 150 212.5 150C209.185 150 206.005 151.317 203.661 153.661C201.317 156.005 200 159.185 200 162.5C200 165.815 201.317 168.995 203.661 171.339C206.005 173.683 209.185 175 212.5 175ZM212.5 225C215.815 225 218.995 223.683 221.339 221.339C223.683 218.995 225 215.815 225 212.5C225 209.185 223.683 206.005 221.339 203.661C218.995 201.317 215.815 200 212.5 200C209.185 200 206.005 201.317 203.661 203.661C201.317 206.005 200 209.185 200 212.5C200 215.815 201.317 218.995 203.661 221.339C206.005 223.683 209.185 225 212.5 225ZM162.5 162.5C162.5 165.815 161.183 168.995 158.839 171.339C156.495 173.683 153.315 175 150 175C146.685 175 143.505 173.683 141.161 171.339C138.817 168.995 137.5 165.815 137.5 162.5C137.5 159.185 138.817 156.005 141.161 153.661C143.505 151.317 146.685 150 150 150C153.315 150 156.495 151.317 158.839 153.661C161.183 156.005 162.5 159.185 162.5 162.5ZM162.5 212.5C162.5 215.815 161.183 218.995 158.839 221.339C156.495 223.683 153.315 225 150 225C146.685 225 143.505 223.683 141.161 221.339C138.817 218.995 137.5 215.815 137.5 212.5C137.5 209.185 138.817 206.005 141.161 203.661C143.505 201.317 146.685 200 150 200C153.315 200 156.495 201.317 158.839 203.661C161.183 206.005 162.5 209.185 162.5 212.5ZM87.5 175C90.8152 175 93.9946 173.683 96.3388 171.339C98.683 168.995 100 165.815 100 162.5C100 159.185 98.683 156.005 96.3388 153.661C93.9946 151.317 90.8152 150 87.5 150C84.1848 150 81.0054 151.317 78.6612 153.661C76.317 156.005 75 159.185 75 162.5C75 165.815 76.317 168.995 78.6612 171.339C81.0054 173.683 84.1848 175 87.5 175ZM87.5 225C90.8152 225 93.9946 223.683 96.3388 221.339C98.683 218.995 100 215.815 100 212.5C100 209.185 98.683 206.005 96.3388 203.661C93.9946 201.317 90.8152 200 87.5 200C84.1848 200 81.0054 201.317 78.6612 203.661C76.317 206.005 75 209.185 75 212.5C75 215.815 76.317 218.995 78.6612 221.339C81.0054 223.683 84.1848 225 87.5 225Z" fill="white"/>
</svg>
